<svg width="1090" height="508" viewBox="0 0 1090 508" fill="none" xmlns="http://www.w3.org/2000/svg">
<g clip-path="url(#clip0_302_100)">
<rect width="1090" height="508" rx="8" fill="black"/>
<path d="M133.741 449.747C187.082 503.088 220.337 566.385 231.002 625.583C241.667 684.783 229.736 739.833 192.784 776.784C155.833 813.736 100.783 825.667 41.5826 815.002C-17.6151 804.337 -80.9116 771.082 -134.253 717.741C-187.594 664.4 -220.849 601.103 -231.514 541.905C-242.179 482.705 -230.248 427.656 -193.296 390.704C-156.345 353.752 -101.295 341.821 -42.0947 352.486C17.1031 363.151 80.3996 396.406 133.741 449.747Z" stroke="white"/>
<path d="M165.741 417.747C219.082 471.088 252.337 534.385 263.002 593.583C273.667 652.783 261.736 707.833 224.784 744.784C187.833 781.736 132.783 793.667 73.5826 783.002C14.3849 772.337 -48.9116 739.082 -102.253 685.741C-155.594 632.4 -188.849 569.103 -199.514 509.905C-210.179 450.705 -198.248 395.656 -161.296 358.704C-124.345 321.752 -69.2946 309.821 -10.0947 320.486C49.1031 331.151 112.4 364.406 165.741 417.747Z" stroke="white"/>
<path d="M197.741 385.747C251.082 439.088 284.337 502.385 295.002 561.583C305.667 620.783 293.736 675.833 256.784 712.784C219.833 749.736 164.783 761.667 105.583 751.002C46.3849 740.337 -16.9116 707.082 -70.2527 653.741C-123.594 600.4 -156.849 537.103 -167.514 477.905C-178.179 418.705 -166.248 363.656 -129.296 326.704C-92.3446 289.752 -37.2946 277.821 21.9053 288.486C81.1031 299.151 144.4 332.406 197.741 385.747Z" stroke="white"/>
<path d="M1191.74 9.74737C1245.08 63.0885 1278.34 126.385 1289 185.583C1299.67 244.783 1287.74 299.833 1250.78 336.784C1213.83 373.736 1158.78 385.667 1099.58 375.002C1040.38 364.337 977.088 331.082 923.747 277.741C870.406 224.4 837.151 161.103 826.486 101.905C815.821 42.7055 827.752 -12.3445 864.704 -49.296C901.655 -86.2476 956.705 -98.1787 1015.91 -87.5138C1075.1 -76.8493 1138.4 -43.5938 1191.74 9.74737Z" stroke="white"/>
<path d="M1223.74 -22.2526C1277.08 31.0885 1310.34 94.385 1321 153.583C1331.67 212.783 1319.74 267.833 1282.78 304.784C1245.83 341.736 1190.78 353.667 1131.58 343.002C1072.38 332.337 1009.09 299.082 955.747 245.741C902.406 192.4 869.151 129.103 858.486 69.9055C847.821 10.7055 859.752 -44.3445 896.704 -81.296C933.655 -118.248 988.705 -130.179 1047.91 -119.514C1107.1 -108.849 1170.4 -75.5938 1223.74 -22.2526Z" stroke="white"/>
<path d="M1255.74 -54.2526C1309.08 -0.911519 1342.34 62.385 1353 121.583C1363.67 180.783 1351.74 235.833 1314.78 272.784C1277.83 309.736 1222.78 321.667 1163.58 311.002C1104.38 300.337 1041.09 267.082 987.747 213.741C934.406 160.4 901.151 97.1032 890.486 37.9055C879.821 -21.2945 891.752 -76.3445 928.704 -113.296C965.655 -150.248 1020.71 -162.179 1079.91 -151.514C1139.1 -140.849 1202.4 -107.594 1255.74 -54.2526Z" stroke="white"/>
<g filter="url(#filter0_f_302_100)">
<ellipse cx="140.33" cy="74.036" rx="140.33" ry="74.036" transform="matrix(0.767494 0.641056 0.641056 -0.767494 779.771 212.644)" fill="#FDE598"/>
</g>
<g filter="url(#filter1_f_302_100)">
<ellipse cx="137.426" cy="74.036" rx="137.426" ry="74.036" transform="matrix(0.767494 0.641056 0.641056 -0.767494 756.511 290.311)" fill="#FF5555"/>
</g>
<path d="M681 34L682.505 63.9289L711.434 56.1115L683.435 66.7911L699.809 91.8885L681 68.56L662.191 91.8885L678.565 66.7911L650.566 56.1115L679.495 63.9289L681 34Z" fill="white"/>
<path d="M462.912 354.971L447.838 371.641L467.325 382.837L446.813 373.652L442.187 395.646L444.584 373.299L422.237 375.696L444.23 371.069L435.045 350.557L446.242 370.045L462.912 354.971Z" fill="white"/>
</g>
<defs>
<filter id="filter0_f_302_100" x="714.055" y="36.2107" width="441.76" height="419.141" filterUnits="userSpaceOnUse" color-interpolation-filters="sRGB">
<feFlood flood-opacity="0" result="BackgroundImageFix"/>
<feBlend mode="normal" in="SourceGraphic" in2="BackgroundImageFix" result="shape"/>
<feGaussianBlur stdDeviation="51.5773" result="effect1_foregroundBlur_302_100"/>
</filter>
<filter id="filter1_f_302_100" x="690.603" y="113.587" width="437.687" height="416.001" filterUnits="userSpaceOnUse" color-interpolation-filters="sRGB">
<feFlood flood-opacity="0" result="BackgroundImageFix"/>
<feBlend mode="normal" in="SourceGraphic" in2="BackgroundImageFix" result="shape"/>
<feGaussianBlur stdDeviation="51.5773" result="effect1_foregroundBlur_302_100"/>
</filter>
<clipPath id="clip0_302_100">
<rect width="1090" height="508" rx="8" fill="white"/>
</clipPath>
</defs>
</svg>
