<svg width="392" height="316" viewBox="0 0 392 316" fill="none" xmlns="http://www.w3.org/2000/svg">
<path d="M133.741 257.747C187.082 311.088 220.337 374.385 231.002 433.583C241.667 492.783 229.736 547.833 192.784 584.784C155.833 621.736 100.783 633.667 41.5826 623.002C-17.6151 612.337 -80.9116 579.082 -134.253 525.741C-187.594 472.4 -220.849 409.103 -231.514 349.905C-242.179 290.705 -230.248 235.656 -193.296 198.704C-156.345 161.752 -101.295 149.821 -42.0947 160.486C17.1031 171.151 80.3996 204.406 133.741 257.747Z" stroke="white"/>
<path d="M165.741 225.747C219.082 279.088 252.337 342.385 263.002 401.583C273.667 460.783 261.736 515.833 224.784 552.784C187.833 589.736 132.783 601.667 73.5826 591.002C14.3849 580.337 -48.9116 547.082 -102.253 493.741C-155.594 440.4 -188.849 377.103 -199.514 317.905C-210.179 258.705 -198.248 203.656 -161.296 166.704C-124.345 129.752 -69.2946 117.821 -10.0947 128.486C49.1031 139.151 112.4 172.406 165.741 225.747Z" stroke="white"/>
<path d="M197.741 193.747C251.082 247.088 284.337 310.385 295.002 369.583C305.667 428.783 293.736 483.833 256.784 520.784C219.833 557.736 164.783 569.667 105.583 559.002C46.3849 548.337 -16.9116 515.082 -70.2527 461.741C-123.594 408.4 -156.849 345.103 -167.514 285.905C-178.179 226.705 -166.248 171.656 -129.296 134.704C-92.3446 97.7524 -37.2946 85.8213 21.9053 96.4862C81.1031 107.151 144.4 140.406 197.741 193.747Z" stroke="white"/>
</svg>
