<svg width="24" height="25" viewBox="0 0 24 25" fill="none" xmlns="http://www.w3.org/2000/svg">
<path d="M16.9394 3.70898C18.2804 3.70898 19.5704 4.23898 20.5194 5.18998C21.4694 6.13898 22.0004 7.41898 22.0004 8.75898V16.659C22.0004 19.449 19.7304 21.709 16.9394 21.709H7.06043C4.26943 21.709 2.00043 19.449 2.00043 16.659V8.75898C2.00043 5.96898 4.25943 3.70898 7.06043 3.70898H16.9394ZM18.0704 8.90898C17.8604 8.89798 17.6604 8.96898 17.5094 9.10898L13.0004 12.709C12.4204 13.19 11.5894 13.19 11.0004 12.709L6.50043 9.10898C6.18943 8.87898 5.75943 8.90898 5.50043 9.17898C5.23043 9.44898 5.20043 9.87898 5.42943 10.179L5.56043 10.309L10.1104 13.859C10.6704 14.299 11.3494 14.539 12.0604 14.539C12.7694 14.539 13.4604 14.299 14.0194 13.859L18.5304 10.249L18.6104 10.169C18.8494 9.87898 18.8494 9.45898 18.5994 9.16898C18.4604 9.01998 18.2694 8.92898 18.0704 8.90898Z" fill="#FF5555"/>
</svg>
