<svg width="569" height="427" viewBox="0 0 569 427" fill="none" xmlns="http://www.w3.org/2000/svg">
<path d="M313.141 245.982C313.151 241.571 316.729 238 321.141 238H561C565.418 238 569 241.582 569 246V300.99C569 305.412 565.412 308.995 560.99 308.99L321.008 308.685C316.586 308.679 313.008 305.088 313.018 300.667L313.141 245.982Z" fill="#FF5555"/>
<g filter="url(#filter0_f_101_98)">
<path d="M333.74 276.402L369.882 239.125L385.356 254.203L344.417 296.216L333.74 276.402Z" fill="black"/>
</g>
<path d="M412.808 252.992L413.792 272.551L432.697 267.442L414.399 274.421L425.1 290.823L412.808 275.577L400.516 290.823L411.217 274.421L392.919 267.442L411.825 272.551L412.808 252.992Z" fill="black"/>
<rect x="449.406" y="237.96" width="1.30704" height="71.2338" fill="black"/>
<rect x="374.904" y="237.96" width="1.30704" height="71.2338" fill="black"/>
<path d="M294.795 238.839C293.998 236.079 294.742 233.104 296.744 231.044L505.514 16.2041C508.596 13.0324 513.667 12.9632 516.835 16.0497L556.69 54.8858C559.854 57.9693 559.92 63.0342 556.836 66.1985L325.839 303.256C321.557 307.651 314.126 305.787 312.423 299.892L294.795 238.839Z" fill="#FF5555"/>
<path d="M348.523 234.323L345.659 231.532L344.725 230.72L344.815 230.627L346.02 231.161L349.697 232.444L351.191 230.911L349.813 227.269L349.249 226.078L349.339 225.985L350.183 226.89L353.047 229.681L354.279 228.417L348.634 222.917L346.959 224.635L348.491 228.625L349.313 230.428L349.223 230.521L347.383 229.762L343.314 228.376L341.647 230.086L347.292 235.587L348.523 234.323ZM356.273 226.539C357.184 225.604 357.363 224.628 356.895 223.794L356.961 223.727L357.929 224.671L359.079 223.491L356.602 221.078C355.498 220.002 354.125 219.962 352.754 221.369C351.399 222.759 351.27 224.341 352.315 225.359L352.34 225.384L353.58 224.111L353.546 224.079C353.066 223.611 353.152 223.185 353.776 222.545C354.433 221.871 354.822 221.774 355.37 222.308L355.53 222.464L353.95 224.456C353.164 225.448 353.1 226.289 353.724 226.896C354.432 227.586 355.386 227.449 356.273 226.539ZM354.879 225.542C354.677 225.345 354.724 225.128 354.995 224.8L356.255 223.17C356.82 223.787 356.571 224.447 355.733 225.306C355.372 225.677 355.107 225.764 354.879 225.542ZM360.934 221.587L359.41 220.101L360.354 219.132L362.905 219.565L364.358 218.074L360.698 217.464L360.162 213.936L358.7 215.435L359.217 218.041L358.281 219.001L355.29 216.087L354.058 217.35L359.703 222.851L360.934 221.587ZM366.95 215.583C368.255 214.243 368.485 212.726 367.567 211.831L367.474 211.741L366.243 213.005L366.327 213.087C366.689 213.44 366.629 213.89 365.898 214.64C365.101 215.457 364.528 215.489 363.846 214.891L367.196 211.454C367.069 211.297 366.976 211.174 366.824 211.026C365.502 209.737 363.882 209.949 362.536 211.331C361.181 212.721 361.104 214.502 362.452 215.816C363.952 217.277 365.579 216.99 366.95 215.583ZM363.497 212.317C364.219 211.575 364.792 211.476 365.381 211.984L363.197 214.225C362.707 213.633 362.766 213.066 363.497 212.317ZM373.933 208.248L369.426 203.856L371.471 201.758L370.333 200.65L365.013 206.109L366.151 207.217L368.195 205.119L372.702 209.512L373.933 208.248ZM377.651 204.433L375.536 202.373C374.828 201.683 374.738 201.085 375.567 200.234C376.339 199.442 376.887 199.385 377.594 200.075L379.802 202.226L381.033 200.962L378.447 198.442C377.47 197.49 376.186 197.323 375.078 198.46C374.027 199.539 374.2 200.676 374.785 201.509L374.719 201.576L372.006 198.933L370.775 200.196L376.419 205.697L377.651 204.433ZM383.923 198.166C385.228 196.826 385.458 195.309 384.54 194.414L384.447 194.324L383.216 195.588L383.3 195.67C383.662 196.023 383.601 196.473 382.871 197.223C382.074 198.04 381.501 198.072 380.819 197.474L384.169 194.037C384.042 193.88 383.949 193.757 383.797 193.609C382.475 192.32 380.855 192.532 379.509 193.914C378.154 195.304 378.077 197.085 379.425 198.399C380.925 199.86 382.552 199.573 383.923 198.166ZM380.47 194.9C381.192 194.158 381.765 194.059 382.354 194.567L380.17 196.808C379.68 196.216 379.739 195.649 380.47 194.9ZM391.276 190.452C392.507 189.188 392.475 188.007 391.515 187.071C390.757 186.332 389.742 186.329 388.648 187.3L388.572 187.226C389.424 186.216 389.28 185.353 388.581 184.672C387.696 183.81 386.6 183.957 385.475 185.111L382.175 188.498L387.819 193.998L391.276 190.452ZM384.544 188.342L386.457 186.38C386.916 185.908 387.282 185.87 387.669 186.247C388.057 186.625 388.028 186.975 387.577 187.438L385.647 189.418L384.544 188.342ZM386.692 190.436L388.769 188.305C389.27 187.791 389.635 187.736 390.082 188.171C390.537 188.614 390.492 188.981 389.991 189.495L387.914 191.626L386.692 190.436ZM395.805 185.973C397.11 184.633 397.34 183.116 396.422 182.222L396.329 182.131L395.097 183.395L395.182 183.477C395.544 183.83 395.483 184.28 394.753 185.03C393.956 185.847 393.383 185.879 392.701 185.281L396.051 181.844C395.924 181.687 395.831 181.564 395.679 181.416C394.356 180.127 392.737 180.339 391.391 181.721C390.036 183.111 389.959 184.892 391.307 186.206C392.807 187.667 394.434 187.38 395.805 185.973ZM392.352 182.707C393.074 181.965 393.647 181.866 394.236 182.375L392.052 184.616C391.562 184.023 391.621 183.457 392.352 182.707ZM400.621 181.031C401.893 179.725 402.134 178.433 401.342 177.661C400.643 176.979 399.853 177.031 398.627 178.037L397.639 178.832C397.03 179.322 396.822 179.35 396.603 179.136C396.334 178.874 396.38 178.607 396.996 177.975C397.751 177.2 398.092 177.204 398.438 177.54L398.488 177.59L399.72 176.326L399.694 176.301C398.666 175.3 397.381 175.574 396.034 176.956C394.622 178.405 394.596 179.611 395.338 180.334C396.045 181.024 396.884 180.921 397.798 180.169L399.099 179.121C399.65 178.689 399.841 178.629 400.077 178.859C400.329 179.105 400.283 179.372 399.626 180.046C398.928 180.762 398.597 180.899 398.218 180.53L398.142 180.456L396.911 181.719L396.936 181.744C397.914 182.696 399.233 182.455 400.621 181.031ZM405.967 175.376L404.83 174.267L404.091 175.026C403.656 175.472 403.39 175.525 402.969 175.115L401.461 173.645L402.791 172.281L401.747 171.263L400.417 172.627L399.599 171.831L398.368 173.095L399.185 173.891L398.536 174.557L399.581 175.575L400.23 174.909L401.881 176.518C402.942 177.553 403.989 177.406 404.949 176.42L405.967 175.376ZM408.927 172.339L406.821 170.286L410.121 166.9L408.992 165.8L405.692 169.186L404.42 167.947L407.843 164.433L406.706 163.325L402.051 168.102L407.695 173.603L408.927 172.339ZM409.456 162.492L408.461 161.523L407.23 162.787L408.224 163.756L409.456 162.492ZM414.106 167.024L409.885 162.911L408.654 164.175L412.875 168.288L414.106 167.024ZM415.982 165.099L413.851 163.022C413.135 162.324 413.094 161.726 413.873 160.925C414.629 160.15 415.186 160.151 415.86 160.808L418.067 162.959L419.299 161.695L416.67 159.134C415.735 158.223 414.46 158.048 413.335 159.202C412.26 160.305 412.441 161.468 413.042 162.267L412.968 162.343L411.671 161.078L410.53 162.249L414.751 166.363L415.982 165.099ZM421.27 159.841C422.182 158.906 422.36 157.93 421.892 157.096L421.958 157.028L422.927 157.973L424.076 156.793L421.599 154.379C420.496 153.304 419.122 153.263 417.751 154.67C416.397 156.06 416.267 157.643 417.312 158.661L417.337 158.685L418.577 157.413L418.543 157.38C418.063 156.912 418.149 156.487 418.773 155.847C419.43 155.173 419.82 155.076 420.367 155.61L420.527 155.766L418.948 157.758C418.162 158.749 418.098 159.59 418.721 160.198C419.429 160.888 420.384 160.751 421.27 159.841ZM419.877 158.844C419.674 158.647 419.722 158.43 419.992 158.102L421.252 156.472C421.817 157.088 421.568 157.749 420.73 158.608C420.369 158.979 420.104 159.065 419.877 158.844ZM425.932 154.889L423.8 152.812C423.084 152.114 423.043 151.515 423.823 150.715C424.578 149.94 425.136 149.941 425.81 150.598L428.017 152.749L429.249 151.485L426.62 148.924C425.685 148.012 424.41 147.838 423.285 148.992C422.21 150.095 422.391 151.258 422.992 152.057L422.918 152.133L421.621 150.868L420.479 152.039L424.7 156.153L425.932 154.889ZM432.148 148.679C433.47 147.322 433.64 145.681 432.553 144.622L432.435 144.507L431.212 145.763L431.279 145.828C431.818 146.354 431.626 146.938 430.986 147.596C430.255 148.345 429.641 148.42 428.865 147.665C428.082 146.901 428.141 146.285 428.871 145.535C429.512 144.878 430.091 144.671 430.63 145.196L430.698 145.262L431.921 144.006L431.803 143.892C430.708 142.824 429.08 143.045 427.759 144.401C426.346 145.85 426.294 147.606 427.642 148.92C428.973 150.217 430.736 150.128 432.148 148.679ZM431.399 139.974L430.405 139.005L429.174 140.269L430.168 141.238L431.399 139.974ZM436.05 144.506L431.829 140.393L430.597 141.657L434.818 145.77L436.05 144.506ZM438.043 142.629C438.954 141.694 439.133 140.719 438.665 139.884L438.73 139.817L439.699 140.761L440.849 139.582L438.372 137.168C437.268 136.092 435.895 136.052 434.524 137.459C433.169 138.849 433.04 140.431 434.085 141.449L434.11 141.474L435.35 140.202L435.316 140.169C434.836 139.701 434.922 139.276 435.546 138.635C436.202 137.961 436.592 137.865 437.14 138.398L437.3 138.554L435.72 140.546C434.934 141.538 434.87 142.379 435.494 142.987C436.201 143.676 437.156 143.539 438.043 142.629ZM436.649 141.632C436.447 141.435 436.494 141.218 436.764 140.891L438.024 139.26C438.59 139.877 438.34 140.537 437.503 141.397C437.142 141.767 436.877 141.854 436.649 141.632ZM442.704 137.677L437.06 132.177L435.828 133.441L441.473 138.941L442.704 137.677ZM447.333 132.927C449.098 131.116 449.162 128.944 447.392 127.22C445.623 125.496 443.454 125.616 441.688 127.427L439.037 130.148L444.681 135.649L447.333 132.927ZM442.826 128.535C443.942 127.389 444.722 127.246 446.079 128.568C447.435 129.89 447.312 130.673 446.196 131.819L444.775 133.277L441.405 129.993L442.826 128.535ZM453.017 127.263C454.322 125.924 454.552 124.407 453.634 123.512L453.541 123.422L452.31 124.685L452.394 124.767C452.756 125.12 452.696 125.57 451.965 126.32C451.169 127.137 450.595 127.17 449.913 126.571L453.263 123.134C453.136 122.978 453.043 122.854 452.892 122.706C451.569 121.417 449.949 121.63 448.603 123.011C447.248 124.401 447.172 126.183 448.52 127.496C450.019 128.957 451.646 128.67 453.017 127.263ZM449.564 123.997C450.287 123.256 450.859 123.157 451.448 123.665L449.264 125.906C448.774 125.313 448.833 124.747 449.564 123.997ZM457.948 122.203C459.27 120.847 459.44 119.206 458.353 118.147L458.235 118.032L457.012 119.287L457.079 119.353C457.618 119.878 457.426 120.463 456.786 121.12C456.055 121.87 455.441 121.945 454.666 121.189C453.882 120.426 453.941 119.809 454.671 119.06C455.312 118.403 455.891 118.195 456.43 118.721L456.498 118.786L457.721 117.531L457.603 117.416C456.508 116.349 454.88 116.57 453.559 117.926C452.146 119.375 452.094 121.131 453.442 122.445C454.773 123.742 456.536 123.652 457.948 122.203ZM457.199 113.499L456.205 112.53L454.974 113.794L455.968 114.763L457.199 113.499ZM461.85 118.031L457.629 113.918L456.398 115.181L460.618 119.294L461.85 118.031ZM464.656 115.32C465.928 114.014 466.169 112.722 465.378 111.95C464.678 111.268 463.889 111.32 462.662 112.326L461.674 113.121C461.065 113.611 460.857 113.639 460.638 113.425C460.369 113.163 460.415 112.896 461.031 112.264C461.786 111.489 462.127 111.493 462.473 111.829L462.523 111.879L463.755 110.615L463.73 110.59C462.702 109.589 461.416 109.863 460.069 111.245C458.657 112.694 458.631 113.9 459.373 114.623C460.08 115.312 460.919 115.21 461.833 114.458L463.134 113.41C463.686 112.978 463.876 112.918 464.112 113.147C464.365 113.394 464.318 113.661 463.661 114.335C462.964 115.051 462.633 115.188 462.254 114.819L462.178 114.745L460.946 116.008L460.971 116.033C461.949 116.985 463.268 116.744 464.656 115.32ZM463.685 106.843L462.691 105.874L461.46 107.138L462.454 108.107L463.685 106.843ZM468.336 111.375L464.115 107.262L462.884 108.525L467.104 112.639L468.336 111.375ZM471.257 108.546C472.661 107.106 472.745 105.299 471.414 104.002C470.066 102.689 468.271 102.828 466.868 104.269C465.464 105.709 465.37 107.507 466.718 108.821C468.049 110.118 469.853 109.987 471.257 108.546ZM470.136 107.454C469.299 108.314 468.683 108.288 467.942 107.566C467.2 106.843 467.142 106.212 467.98 105.353C468.809 104.502 469.45 104.535 470.191 105.257C470.932 105.98 470.966 106.603 470.136 107.454ZM475.255 104.275L473.124 102.198C472.407 101.5 472.366 100.901 473.146 100.101C473.902 99.326 474.459 99.3271 475.133 99.9839L477.34 102.135L478.572 100.871L475.943 98.3097C475.008 97.3984 473.733 97.2236 472.608 98.3778C471.533 99.4814 471.714 100.644 472.315 101.443L472.241 101.519L470.944 100.254L469.803 101.425L474.023 105.538L475.255 104.275ZM481.356 98.1826C482.629 96.8767 482.87 95.5842 482.078 94.8125C481.379 94.1311 480.589 94.1829 479.363 95.1887L478.375 95.9834C477.765 96.4737 477.558 96.5014 477.339 96.2879C477.069 96.0252 477.116 95.7584 477.731 95.1265C478.487 94.3515 478.828 94.3554 479.173 94.692L479.224 94.7412L480.455 93.4775L480.43 93.4529C479.402 92.4513 478.116 92.7258 476.77 94.1074C475.358 95.5565 475.332 96.763 476.073 97.4855C476.781 98.1751 477.62 98.0728 478.533 97.3206L479.834 96.2723C480.386 95.8409 480.576 95.7802 480.812 96.0101C481.065 96.2564 481.019 96.5232 480.362 97.1972C479.664 97.9133 479.333 98.0507 478.954 97.6812L478.878 97.6073L477.647 98.871L477.672 98.8957C478.649 99.848 479.969 99.6064 481.356 98.1826Z" fill="black"/>
<path d="M56.6392 251.595L521.348 4.50539C525.249 2.43114 530.093 3.91209 532.167 7.8132L558.192 56.7586C560.266 60.6597 558.785 65.5037 554.884 67.5779L90.1755 314.668L56.6392 251.595Z" fill="black"/>
<g clip-path="url(#clip0_101_98)">
<path d="M344.8 136.222L343.358 136.989C342.88 137.243 342.698 137.837 342.952 138.315C343.206 138.793 343.8 138.974 344.278 138.72L344.855 138.413C345.333 138.159 345.927 138.341 346.181 138.819C346.435 139.297 346.253 139.89 345.775 140.145L344.333 140.912M343.339 136.259L343.646 136.836M345.487 140.298L345.794 140.875M348.029 136.726L348.034 136.723M341.104 140.408L341.11 140.405M337.63 139.442L339.962 143.828C340.306 144.474 340.478 144.797 340.735 144.977C340.961 145.135 341.231 145.218 341.507 145.213C341.821 145.208 342.144 145.036 342.79 144.692L350.638 140.52C351.284 140.176 351.607 140.004 351.787 139.747C351.946 139.521 352.028 139.251 352.024 138.975C352.018 138.661 351.846 138.338 351.503 137.692L349.171 133.306C348.827 132.66 348.655 132.337 348.398 132.157C348.172 131.998 347.902 131.916 347.626 131.92C347.312 131.926 346.989 132.098 346.343 132.441L338.495 136.614C337.849 136.958 337.526 137.13 337.346 137.387C337.187 137.613 337.105 137.883 337.109 138.159C337.115 138.473 337.287 138.796 337.63 139.442ZM348.317 136.573C348.402 136.732 348.341 136.93 348.182 137.015C348.023 137.099 347.825 137.039 347.74 136.879C347.655 136.72 347.716 136.522 347.875 136.438C348.035 136.353 348.232 136.413 348.317 136.573ZM341.393 140.254C341.478 140.414 341.417 140.612 341.258 140.696C341.098 140.781 340.901 140.721 340.816 140.561C340.731 140.402 340.792 140.204 340.951 140.119C341.11 140.035 341.308 140.095 341.393 140.254Z" stroke="#FF5555" stroke-width="1.30704" stroke-linecap="round" stroke-linejoin="round"/>
</g>
<circle cx="344.567" cy="138.567" r="15.3578" transform="rotate(-28 344.567 138.567)" stroke="#FF5555" stroke-width="0.653521"/>
<path d="M367.134 120.567L365.753 117.97L369.928 115.75L369.188 114.358L365.013 116.578L364.179 115.01L368.51 112.707L367.765 111.305L361.876 114.436L365.576 121.395L367.134 120.567ZM370.638 111.35L369.986 110.124L368.428 110.952L369.08 112.178L370.638 111.35ZM373.686 117.083L370.919 111.879L369.361 112.708L372.128 117.911L373.686 117.083ZM376.059 115.821L374.662 113.193C374.193 112.31 374.336 111.728 375.323 111.203C376.278 110.695 376.809 110.866 377.251 111.697L378.698 114.418L380.256 113.59L378.533 110.349C377.92 109.196 376.758 108.641 375.336 109.398C373.975 110.121 373.794 111.284 374.122 112.228L374.029 112.278L373.178 110.678L371.735 111.446L374.502 116.649L376.059 115.821ZM382.699 112.424C383.851 111.811 384.319 110.936 384.127 109.999L384.21 109.955L384.845 111.149L386.299 110.376L384.676 107.323C383.952 105.962 382.657 105.505 380.922 106.427C379.208 107.339 378.603 108.806 379.288 110.094L379.305 110.125L380.873 109.291L380.851 109.25C380.536 108.658 380.748 108.279 381.537 107.859C382.368 107.417 382.768 107.444 383.127 108.119L383.232 108.317L381.121 109.732C380.07 110.438 379.753 111.219 380.162 111.988C380.626 112.86 381.577 113.021 382.699 112.424ZM381.675 111.05C381.542 110.801 381.653 110.608 382.011 110.378L383.707 109.21C384.058 109.969 383.619 110.522 382.56 111.086C382.103 111.329 381.824 111.33 381.675 111.05ZM388.647 109.128L387.25 106.5C386.78 105.617 386.924 105.035 387.91 104.51C388.866 104.002 389.396 104.173 389.838 105.004L391.285 107.725L392.843 106.897L391.12 103.656C390.507 102.503 389.346 101.948 387.923 102.705C386.562 103.428 386.381 104.591 386.71 105.535L386.616 105.585L385.766 103.985L384.322 104.753L387.089 109.956L388.647 109.128ZM396.46 105.107C398.132 104.218 398.794 102.707 398.082 101.367L398.004 101.222L396.457 102.045L396.501 102.128C396.854 102.792 396.493 103.291 395.683 103.722C394.759 104.213 394.15 104.097 393.642 103.141C393.129 102.175 393.372 101.606 394.297 101.115C395.107 100.684 395.722 100.663 396.076 101.328L396.12 101.411L397.667 100.588L397.59 100.443C396.872 99.0924 395.255 98.8067 393.582 99.6958C391.796 100.646 391.211 102.302 392.095 103.964C392.967 105.605 394.673 106.057 396.46 105.107ZM402.708 101.785C404.359 100.907 405.04 99.5322 404.438 98.4001L404.378 98.2859L402.82 99.1143L402.875 99.2181C403.112 99.6647 402.917 100.075 401.993 100.566C400.985 101.102 400.429 100.958 399.962 100.18L404.2 97.9272C404.127 97.7396 404.076 97.5935 403.977 97.4066C403.11 95.7759 401.502 95.4846 399.799 96.3903C398.085 97.3016 397.469 98.9746 398.353 100.636C399.336 102.485 400.973 102.707 402.708 101.785ZM400.414 97.6221C401.328 97.1361 401.904 97.2164 402.31 97.8798L399.547 99.3488C399.261 98.6351 399.49 98.1136 400.414 97.6221Z" fill="white"/>
<path d="M375.392 136.9L373.122 132.632L372.545 131.646L372.628 131.602L373.589 132.383L377.56 135.215L378.91 134.497L378.783 129.622L378.673 128.388L378.756 128.344L379.25 129.373L381.52 133.642L382.641 133.046L378.941 126.087L377.415 126.899L377.573 131.983L377.728 133.753L377.645 133.797L376.244 132.69L372.097 129.726L370.57 130.538L374.27 137.497L375.392 136.9ZM386.376 131.193C388.1 130.276 388.673 128.573 387.828 126.984C386.972 125.374 385.245 124.907 383.521 125.823C381.807 126.735 381.229 128.428 382.085 130.038C382.93 131.627 384.662 132.104 386.376 131.193ZM385.846 130.196C384.6 130.859 383.765 130.543 383.186 129.452C382.6 128.351 382.799 127.473 384.046 126.81C385.302 126.142 386.142 126.468 386.727 127.569C387.307 128.66 387.103 129.528 385.846 130.196ZM392.508 127.933C393.962 127.16 394.614 126.08 394.1 125.114C393.647 124.263 392.866 124.145 391.557 124.641L390.274 125.11C389.44 125.421 389.155 125.386 388.94 124.98C388.68 124.492 388.902 124.108 389.847 123.605C390.99 122.998 391.473 123.154 391.798 123.767L391.832 123.829L392.943 123.238L392.926 123.207C392.275 121.982 390.982 121.856 389.404 122.696C387.814 123.54 387.336 124.621 387.817 125.524C388.275 126.386 389.088 126.487 390.131 126.093L391.643 125.528C392.435 125.24 392.756 125.243 392.983 125.669C393.226 126.126 393.035 126.493 392.028 127.029C390.947 127.604 390.426 127.601 390.067 126.926L390.023 126.843L388.901 127.439L388.918 127.47C389.553 128.665 390.846 128.816 392.508 127.933ZM399.058 124.317L398.522 123.309L397.587 123.807C396.943 124.149 396.564 124.137 396.227 123.504L394.941 121.084L396.81 120.09L396.313 119.155L394.443 120.149L393.842 119.017L392.73 119.608L393.332 120.74L392.46 121.204L392.957 122.139L393.829 121.675L395.149 124.157C395.817 125.414 396.762 125.537 397.874 124.947L399.058 124.317ZM402.656 122.404L401.541 120.306L403.826 119.091C405.373 118.268 405.958 116.811 405.14 115.274C404.317 113.726 402.789 113.407 401.241 114.23L397.834 116.041L401.534 123L402.656 122.404ZM401.673 115.292C402.722 114.735 403.472 114.842 404.019 115.87C404.565 116.899 404.235 117.581 403.186 118.138L401.005 119.298L399.492 116.452L401.673 115.292ZM410.912 118.147C412.636 117.23 413.209 115.527 412.364 113.938C411.508 112.328 409.781 111.861 408.057 112.777C406.343 113.689 405.765 115.382 406.621 116.992C407.466 118.581 409.198 119.058 410.912 118.147ZM410.382 117.15C409.136 117.813 408.301 117.497 407.722 116.406C407.136 115.305 407.335 114.427 408.582 113.764C409.838 113.096 410.678 113.422 411.263 114.523C411.843 115.614 411.639 116.482 410.382 117.15ZM416.609 117.25L414.897 114.03L414.938 114.008C415.648 114.843 416.722 115.058 417.885 114.439C419.495 113.583 419.804 112.034 418.953 110.434C418.103 108.835 416.619 108.225 415.02 109.075C413.805 109.721 413.387 110.69 413.687 111.756L413.594 111.805L412.831 110.372L411.803 110.919L415.487 117.846L416.609 117.25ZM414.344 112.992L414.295 112.898C413.704 111.787 414.06 110.904 415.213 110.291C416.294 109.717 417.169 109.784 417.831 111.031C418.489 112.267 418.071 113.035 416.96 113.626C415.859 114.211 414.908 114.051 414.344 112.992ZM423.306 111.557C424.635 110.851 424.879 109.655 424.581 108.694L424.643 108.661L425.494 110.261L426.522 109.714L423.777 104.552L422.666 105.143L424.025 107.698C424.621 108.82 424.401 109.683 423.258 110.29C422.167 110.87 421.461 110.62 420.948 109.654L419.457 106.849L418.345 107.44L419.996 110.546C420.632 111.74 421.851 112.331 423.306 111.557ZM428.663 108.576L424.963 101.617L423.841 102.213L427.541 109.172L428.663 108.576ZM431.273 107.321C432.447 106.697 432.991 105.741 432.797 104.725L432.87 104.687L433.555 105.974L434.583 105.428L432.915 102.291C432.258 101.055 431.046 100.554 429.405 101.426C427.764 102.299 427.257 103.701 427.881 104.875L427.903 104.916L429.014 104.325L428.992 104.284C428.589 103.526 428.891 102.965 429.846 102.457C430.833 101.933 431.367 102.035 431.82 102.887L431.98 103.188L429.765 104.685C428.808 105.341 428.385 106.099 428.81 106.898C429.263 107.75 430.203 107.89 431.273 107.321ZM429.893 106.229C429.678 105.824 429.887 105.54 430.43 105.158L432.334 103.853C432.875 104.871 432.317 105.727 431.144 106.351C430.5 106.693 430.114 106.645 429.893 106.229ZM436.706 104.299L435.165 101.401C434.674 100.477 434.778 99.7952 435.661 99.3258C436.429 98.9171 436.923 99.0942 437.315 99.8317L437.558 100.289L438.67 99.6977L438.311 99.0226C437.792 98.0463 436.835 97.4756 435.662 98.0997C434.602 98.663 434.395 99.6259 434.681 100.54L434.608 100.578L433.868 99.1865L432.84 99.7333L435.585 104.895L436.706 104.299ZM443.351 100.766L443.19 98.5334L446.867 96.5784L448.627 97.9605L449.894 97.2867L443.089 91.979L441.51 92.8185L442.104 101.429L443.351 100.766ZM442.919 94.6671L442.8 93.465L442.883 93.4208L443.812 94.1921L445.884 95.8084L443.101 97.2885L442.919 94.6671ZM453.076 95.7283C454.623 94.9054 455.292 93.431 454.607 92.1431L454.546 92.0288L453.435 92.6197L453.473 92.6924C453.899 93.4922 453.527 94.1961 452.519 94.7318C451.356 95.3504 450.539 95.0656 449.948 93.9543C449.346 92.8221 449.572 91.9955 450.736 91.377C451.743 90.8413 452.535 90.9267 452.96 91.7265L452.993 91.7888L454.104 91.1979L454.049 91.094C453.364 89.8061 451.768 89.5356 450.221 90.3585C448.517 91.2642 447.98 92.9353 448.836 94.5452C449.681 96.1343 451.372 96.634 453.076 95.7283ZM459.192 92.4762C460.74 91.6533 461.408 90.1789 460.723 88.891L460.662 88.7767L459.551 89.3677L459.59 89.4404C460.015 90.2401 459.643 90.9441 458.636 91.4798C457.472 92.0983 456.655 91.8136 456.064 90.7022C455.462 89.5701 455.689 88.7435 456.852 88.1249C457.859 87.5893 458.651 87.6747 459.076 88.4744L459.109 88.5367L460.221 87.9458L460.165 87.842C459.481 86.554 457.885 86.2835 456.337 87.1064C454.634 88.0121 454.097 89.6832 454.953 91.2931C455.798 92.8822 457.489 93.3819 459.192 92.4762ZM465.34 89.2076C467.064 88.2908 467.637 86.5872 466.792 84.9981C465.936 83.3882 464.209 82.921 462.484 83.8378C460.771 84.749 460.192 86.4422 461.048 88.0521C461.893 89.6412 463.626 90.1188 465.34 89.2076ZM464.809 88.2105C463.563 88.8732 462.729 88.5573 462.149 87.4667C461.564 86.3657 461.763 85.4872 463.009 84.8245C464.266 84.1563 465.105 84.4825 465.691 85.5835C466.271 86.6741 466.066 87.5422 464.809 88.2105ZM471.181 86.1018C472.51 85.3949 472.754 84.1995 472.456 83.2387L472.518 83.2056L473.369 84.8051L474.397 84.2583L471.652 79.0963L470.541 79.6872L471.9 82.2423C472.496 83.364 472.276 84.2273 471.133 84.8348C470.042 85.4146 469.336 85.1639 468.823 84.198L467.332 81.3937L466.22 81.9846L467.872 85.0901C468.507 86.2846 469.726 86.875 471.181 86.1018ZM476.538 83.12L475.179 80.565C474.583 79.4432 474.783 78.591 475.915 77.989C476.985 77.4202 477.68 77.6764 478.194 78.6424L479.685 81.4467L480.807 80.8503L479.156 77.7447C478.52 76.5503 477.301 75.9599 475.867 76.722C474.559 77.4178 474.315 78.6132 474.623 79.5685L474.55 79.6072L473.7 78.0077L472.671 78.5544L475.416 83.7165L476.538 83.12ZM485.192 78.5184L484.657 77.511L483.722 78.008C483.078 78.3504 482.699 78.3388 482.362 77.7053L481.075 75.2852L482.945 74.2912L482.448 73.3564L480.578 74.3504L479.976 73.2183L478.865 73.8092L479.467 74.9414L478.594 75.4053L479.091 76.34L479.964 75.8761L481.284 78.3585C481.952 79.6153 482.897 79.7389 484.008 79.148L485.192 78.5184ZM483.951 71.7845L483.316 70.59L482.194 71.1864L482.829 72.3809L483.951 71.7845ZM487.016 77.5489L484.271 72.3869L483.149 72.9833L485.894 78.1454L487.016 77.5489ZM489.176 76.4002L487.818 73.8451C487.221 72.7234 487.421 71.8711 488.553 71.2692C489.623 70.7004 490.319 70.9566 490.832 71.9225L492.323 74.7268L493.445 74.1304L491.794 71.0249C491.159 69.8304 489.939 69.24 488.505 70.0021C487.197 70.698 486.953 71.8934 487.261 72.8487L487.188 72.8873L486.338 71.2878L485.31 71.8346L488.054 76.9966L489.176 76.4002ZM496.439 71.9387C497.613 71.3146 498.011 70.3838 497.784 69.5054L497.856 69.4667L498.53 70.7339C499.143 71.8868 498.888 72.4352 497.715 73.0592C496.614 73.6446 496.028 73.5961 495.631 72.8483L494.519 73.4392C495.182 74.6856 496.623 74.8389 498.149 74.0271C499.842 73.1269 500.531 71.8152 499.608 70.0806L497.184 65.521L496.156 66.0677L496.84 67.3556L496.778 67.3888C496.111 66.5845 495.041 66.5271 493.961 67.1015C492.392 67.9354 491.95 69.4094 492.713 70.8427C493.475 72.2761 494.902 72.756 496.439 71.9387ZM493.845 70.2408C493.281 69.1814 493.722 68.481 494.802 67.9066C495.892 67.3267 496.774 67.431 497.238 68.3034L497.315 68.4488C497.801 69.3628 497.432 70.172 496.289 70.7795C495.23 71.3428 494.408 71.3002 493.845 70.2408ZM503.469 68.8008L503.307 66.5683L506.984 64.6133L508.745 65.9953L510.012 65.3216L503.206 60.0139L501.628 60.8533L502.222 69.4635L503.469 68.8008ZM503.037 62.702L502.917 61.4999L503 61.4557L503.93 62.227L506.002 63.8433L503.218 65.3233L503.037 62.702ZM512.592 66.2147L510.88 62.9949L510.921 62.9728C511.632 63.8075 512.705 64.0227 513.869 63.4042C515.479 62.5482 515.787 60.9986 514.937 59.399C514.086 57.7995 512.603 57.1894 511.003 58.0399C509.788 58.686 509.37 59.6543 509.67 60.7203L509.577 60.77L508.815 59.3366L507.787 59.8834L511.47 66.8111L512.592 66.2147ZM510.328 61.9562L510.278 61.8628C509.687 60.7514 510.044 59.8689 511.197 59.2559C512.277 58.6816 513.152 58.7491 513.815 59.9955C514.472 61.2315 514.055 61.9997 512.943 62.5906C511.842 63.176 510.891 63.0157 510.328 61.9562ZM519.144 62.7307L517.432 59.5109L517.474 59.4888C518.184 60.3236 519.258 60.5387 520.421 59.9202C522.031 59.0642 522.339 57.5146 521.489 55.9151C520.639 54.3156 519.155 53.7054 517.556 54.5559C516.34 55.2021 515.923 56.1703 516.223 57.2363L516.129 57.286L515.367 55.8527L514.339 56.3994L518.023 63.3272L519.144 62.7307ZM516.88 58.4723L516.83 58.3788C516.239 57.2675 516.596 56.385 517.749 55.772C518.829 55.1976 519.705 55.2651 520.367 56.5115C521.024 57.7475 520.607 58.5157 519.496 59.1067C518.395 59.6921 517.443 59.5317 516.88 58.4723Z" fill="white"/>
<g clip-path="url(#clip1_101_98)">
<path d="M110.061 265.476C108.149 266.493 105.775 265.767 104.758 263.855L103.053 260.649C102.926 260.41 102.863 260.291 102.847 260.177C102.82 259.986 102.879 259.792 103.008 259.649C103.086 259.563 103.205 259.5 103.444 259.373L108.701 256.577C108.94 256.45 109.059 256.387 109.173 256.371C109.365 256.344 109.558 256.403 109.702 256.532C109.787 256.609 109.851 256.729 109.978 256.967L111.682 260.173C112.699 262.085 111.973 264.46 110.061 265.476ZM110.061 265.476L110.981 267.207M110.148 257.288L111.591 256.521C111.86 256.378 111.994 256.307 112.123 256.294C112.296 256.278 112.468 256.33 112.602 256.44C112.702 256.523 112.774 256.658 112.916 256.926L113.07 257.215C113.355 257.751 113.498 258.02 113.556 258.271C113.714 258.954 113.495 259.668 112.983 260.146C112.794 260.322 112.526 260.465 111.989 260.75M103.224 260.97L101.781 261.737C101.512 261.88 101.378 261.951 101.295 262.052C101.185 262.185 101.132 262.357 101.149 262.53C101.162 262.659 101.233 262.794 101.376 263.063L101.529 263.351C101.815 263.888 101.957 264.156 102.133 264.345C102.611 264.857 103.326 265.076 104.008 264.918C104.26 264.86 104.528 264.717 105.065 264.432M109.58 270.913L114.837 268.118C114.979 268.042 115.033 267.867 114.957 267.725C114.355 266.592 112.948 266.162 111.815 266.764L110.148 267.65C109.015 268.253 108.585 269.66 109.187 270.793C109.262 270.935 109.438 270.988 109.58 270.913Z" stroke="#FF5555" stroke-width="1.30704" stroke-linecap="round" stroke-linejoin="round"/>
</g>
<circle cx="109.141" cy="263.745" r="15.3578" transform="rotate(-28 109.141 263.745)" stroke="#FF5555" stroke-width="0.653521"/>
<path d="M131.427 245.894L131.274 244.004L134.754 242.153L136.225 243.343L138.012 242.393L131.248 237.063L129.025 238.245L129.682 246.822L131.427 245.894ZM130.979 240.417L130.831 239.11L130.945 239.049L131.945 239.903L133.406 241.072L131.131 242.281L130.979 240.417ZM141.204 240.829C142.876 239.94 143.538 238.429 142.826 237.089L142.748 236.943L141.201 237.766L141.245 237.849C141.598 238.514 141.237 239.013 140.427 239.443C139.503 239.935 138.895 239.819 138.387 238.863C137.873 237.897 138.117 237.328 139.041 236.836C139.851 236.406 140.466 236.385 140.82 237.05L140.864 237.133L142.411 236.31L142.334 236.164C141.616 234.814 139.999 234.528 138.327 235.418C136.54 236.367 135.955 238.024 136.839 239.686C137.712 241.327 139.417 241.779 141.204 240.829ZM146.192 238.044L144.805 235.437C144.342 234.564 144.437 233.967 145.486 233.409C146.462 232.89 147.002 233.003 147.466 233.876L148.913 236.597L150.471 235.768L148.775 232.58C148.135 231.375 146.963 230.825 145.561 231.571C144.232 232.278 144.05 233.414 144.353 234.385L144.27 234.429L142.491 231.085L140.934 231.913L144.634 238.872L146.192 238.044ZM149.767 228.789L149.115 227.563L147.557 228.391L148.209 229.617L149.767 228.789ZM152.815 234.522L150.048 229.318L148.49 230.147L151.257 235.35L152.815 234.522ZM156.449 232.723C158.1 231.845 158.781 230.47 158.179 229.338L158.119 229.224L156.561 230.052L156.616 230.156C156.853 230.603 156.658 231.013 155.734 231.504C154.726 232.04 154.17 231.896 153.703 231.119L157.941 228.865C157.868 228.678 157.817 228.532 157.718 228.345C156.851 226.714 155.243 226.423 153.54 227.328C151.826 228.24 151.21 229.913 152.094 231.575C153.077 233.423 154.714 233.645 156.449 232.723ZM154.155 228.56C155.069 228.074 155.645 228.155 156.051 228.818L153.288 230.287C153.002 229.573 153.231 229.052 154.155 228.56ZM163.732 228.717L163.344 222.249L161.641 223.154L162.033 227.676L161.929 227.731L158.411 224.872L156.676 225.794L161.811 229.739L163.732 228.717ZM169.34 225.869C170.992 224.99 171.673 223.616 171.071 222.484L171.01 222.369L169.452 223.198L169.508 223.302C169.745 223.748 169.55 224.158 168.626 224.65C167.618 225.185 167.062 225.042 166.595 224.264L170.833 222.011C170.76 221.823 170.709 221.677 170.609 221.49C169.742 219.859 168.135 219.568 166.432 220.474C164.718 221.385 164.102 223.058 164.986 224.72C165.969 226.569 167.606 226.791 169.34 225.869ZM167.047 221.706C167.961 221.22 168.536 221.3 168.943 221.963L166.18 223.432C165.893 222.718 166.122 222.197 167.047 221.706ZM174.308 223.094L172.911 220.466C172.43 219.562 172.502 219.045 173.447 218.542C174.34 218.067 174.812 218.229 175.271 219.091L176.718 221.813L178.276 220.984L176.878 218.356C176.398 217.453 176.469 216.935 177.414 216.433C178.308 215.958 178.78 216.12 179.238 216.982L180.685 219.703L182.243 218.875L180.52 215.634C179.891 214.45 178.767 213.915 177.427 214.627C176.087 215.34 175.994 216.442 176.339 217.391L176.245 217.441C175.617 216.536 174.612 216.124 173.408 216.765C172.099 217.461 172.01 218.547 172.35 219.486L172.266 219.53L171.427 217.951L169.983 218.719L172.75 223.922L174.308 223.094ZM185.853 217.088C187.505 216.21 188.186 214.836 187.584 213.704L187.523 213.589L185.965 214.418L186.02 214.522C186.258 214.968 186.063 215.378 185.139 215.87C184.131 216.405 183.575 216.261 183.108 215.484L187.346 213.231C187.273 213.043 187.222 212.897 187.122 212.71C186.255 211.079 184.648 210.788 182.945 211.694C181.231 212.605 180.615 214.278 181.499 215.94C182.482 217.789 184.119 218.011 185.853 217.088ZM183.56 212.925C184.474 212.44 185.049 212.52 185.455 213.183L182.693 214.652C182.406 213.938 182.635 213.417 183.56 212.925ZM190.821 214.314L189.424 211.686C188.954 210.803 189.098 210.221 190.084 209.696C191.04 209.188 191.57 209.359 192.012 210.19L193.459 212.911L195.017 212.083L193.294 208.842C192.681 207.689 191.52 207.134 190.097 207.891C188.736 208.614 188.555 209.777 188.884 210.721L188.79 210.771L187.94 209.171L186.496 209.939L189.263 215.142L190.821 214.314ZM199.472 209.714L198.726 208.312L197.791 208.809C197.241 209.102 196.972 209.072 196.696 208.552L195.707 206.693L197.39 205.799L196.705 204.511L195.022 205.405L194.486 204.398L192.929 205.226L193.464 206.234L192.644 206.67L193.328 207.958L194.149 207.522L195.231 209.557C195.927 210.866 196.968 211.045 198.184 210.399L199.472 209.714ZM202.738 208.111C204.348 207.255 204.972 206.097 204.452 205.121C203.994 204.259 203.226 204.067 201.752 204.652L200.568 205.107C199.839 205.389 199.633 205.352 199.489 205.082C199.312 204.75 199.438 204.51 200.217 204.095C201.172 203.587 201.496 203.695 201.723 204.121L201.756 204.183L203.314 203.355L203.297 203.324C202.623 202.056 201.315 201.926 199.612 202.832C197.825 203.782 197.433 204.923 197.919 205.837C198.383 206.709 199.213 206.868 200.312 206.43L201.871 205.827C202.527 205.585 202.727 205.585 202.882 205.876C203.048 206.187 202.922 206.427 202.091 206.869C201.208 207.338 200.851 207.368 200.603 206.901L200.553 206.808L198.995 207.636L199.012 207.667C199.652 208.872 200.983 209.044 202.738 208.111Z" fill="white"/>
<path d="M142.832 260.555C144.266 259.792 144.679 258.64 144.044 257.446C143.558 256.532 142.634 256.197 141.378 256.692L141.339 256.619C142.332 255.931 142.464 255.075 142.027 254.255C141.442 253.154 140.316 252.966 138.987 253.673L135.092 255.744L138.792 262.703L142.832 260.555ZM136.739 256.16L139.398 254.747C140.177 254.332 140.701 254.44 141.049 255.095C141.396 255.749 141.162 256.26 140.383 256.674L137.755 258.072L136.739 256.16ZM138.247 258.996L141.051 257.505C141.872 257.069 142.453 257.159 142.839 257.886C143.242 258.645 143.003 259.172 142.172 259.613L139.368 261.104L138.247 258.996ZM148.444 257.704C149.981 256.887 150.658 255.554 150.073 254.453L150.023 254.36L148.901 254.956L148.945 255.039C149.271 255.652 149.012 256.243 147.932 256.817C146.738 257.452 145.968 257.182 145.396 256.207L149.779 253.876C149.728 253.704 149.661 253.553 149.561 253.366C148.727 251.798 147.167 251.495 145.568 252.345C143.885 253.24 143.359 254.906 144.215 256.516C145.131 258.24 146.751 258.604 148.444 257.704ZM146.017 253.239C147.118 252.654 147.911 252.818 148.419 253.774L148.43 253.795L145.075 255.578C144.646 254.621 144.874 253.847 146.017 253.239ZM154.394 254.54C155.848 253.767 156.5 252.688 155.986 251.722C155.534 250.87 154.752 250.753 153.443 251.249L152.161 251.718C151.326 252.028 151.041 251.993 150.826 251.588C150.566 251.1 150.788 250.715 151.733 250.213C152.876 249.605 153.359 249.762 153.685 250.374L153.718 250.437L154.829 249.846L154.813 249.815C154.161 248.589 152.868 248.464 151.29 249.303C149.701 250.148 149.222 251.228 149.703 252.132C150.161 252.994 150.974 253.095 152.017 252.7L153.529 252.136C154.321 251.848 154.643 251.85 154.869 252.276C155.112 252.733 154.921 253.101 153.914 253.637C152.833 254.211 152.312 254.208 151.953 253.533L151.909 253.45L150.788 254.047L150.804 254.078C151.439 255.272 152.732 255.424 154.394 254.54ZM160.944 250.925L160.408 249.917L159.473 250.414C158.829 250.756 158.45 250.745 158.113 250.111L156.827 247.691L158.696 246.697L158.199 245.762L156.33 246.757L155.728 245.624L154.616 246.215L155.218 247.347L154.346 247.811L154.843 248.746L155.715 248.282L157.035 250.765C157.703 252.021 158.648 252.145 159.76 251.554L160.944 250.925ZM164.542 249.011L163.057 246.217L167.315 243.953L166.785 242.956L162.527 245.22L161.378 243.06L165.792 240.713L165.256 239.705L159.72 242.649L163.421 249.608L164.542 249.011ZM167.847 239.86L167.212 238.665L166.09 239.262L166.725 240.456L167.847 239.86ZM170.912 245.624L168.167 240.462L167.046 241.059L169.79 246.221L170.912 245.624ZM173.073 244.476L171.714 241.92C171.118 240.799 171.317 239.947 172.449 239.345C173.519 238.776 174.215 239.032 174.729 239.998L176.22 242.802L177.341 242.206L175.69 239.1C175.055 237.906 173.835 237.315 172.402 238.078C171.093 238.773 170.849 239.969 171.158 240.924L171.085 240.963L170.234 239.363L169.206 239.91L171.951 245.072L173.073 244.476ZM179.913 240.972C181.086 240.348 181.631 239.392 181.437 238.376L181.51 238.338L182.194 239.625L183.223 239.079L181.555 235.942C180.898 234.706 179.685 234.205 178.044 235.077C176.403 235.95 175.896 237.352 176.52 238.526L176.542 238.567L177.654 237.976L177.632 237.935C177.228 237.177 177.53 236.616 178.486 236.108C179.472 235.584 180.006 235.686 180.459 236.538L180.619 236.839L178.405 238.336C177.448 238.992 177.025 239.75 177.45 240.549C177.903 241.401 178.843 241.541 179.913 240.972ZM178.533 239.88C178.317 239.475 178.526 239.191 179.069 238.809L180.973 237.504C181.514 238.522 180.957 239.378 179.783 240.002C179.139 240.344 178.754 240.296 178.533 239.88ZM185.346 237.95L183.987 235.395C183.391 234.273 183.59 233.421 184.722 232.819C185.792 232.25 186.488 232.506 187.002 233.472L188.493 236.277L189.614 235.68L187.963 232.575C187.328 231.38 186.108 230.79 184.675 231.552C183.366 232.248 183.123 233.443 183.431 234.398L183.358 234.437L182.507 232.838L181.479 233.384L184.224 238.546L185.346 237.95ZM193.276 233.866C194.824 233.043 195.492 231.569 194.807 230.281L194.746 230.167L193.635 230.758L193.674 230.83C194.099 231.63 193.727 232.334 192.72 232.87C191.556 233.488 190.739 233.204 190.148 232.092C189.546 230.96 189.773 230.134 190.936 229.515C191.943 228.979 192.735 229.065 193.16 229.865L193.193 229.927L194.305 229.336L194.249 229.232C193.565 227.944 191.969 227.674 190.421 228.497C188.718 229.402 188.181 231.073 189.037 232.683C189.882 234.272 191.573 234.772 193.276 233.866ZM199.382 230.62C200.919 229.802 201.596 228.47 201.011 227.369L200.961 227.275L199.84 227.872L199.884 227.955C200.21 228.568 199.951 229.158 198.87 229.733C197.676 230.368 196.906 230.098 196.335 229.123L200.718 226.792C200.666 226.62 200.599 226.469 200.5 226.282C199.666 224.714 198.106 224.411 196.506 225.261C194.824 226.156 194.297 227.821 195.153 229.431C196.07 231.155 197.689 231.52 199.382 230.62ZM196.955 226.155C198.056 225.57 198.849 225.734 199.357 226.689L199.368 226.71L196.014 228.494C195.584 227.536 195.812 226.762 196.955 226.155ZM205.338 227.32L205.177 225.087L208.854 223.132L210.615 224.514L211.882 223.84L205.076 218.533L203.497 219.372L204.092 227.982L205.338 227.32ZM204.907 221.221L204.787 220.019L204.87 219.974L205.8 220.746L207.872 222.362L205.088 223.842L204.907 221.221ZM214.462 224.733L212.75 221.514L212.791 221.492C213.502 222.326 214.575 222.541 215.739 221.923C217.348 221.067 217.657 219.517 216.806 217.918C215.956 216.318 214.473 215.708 212.873 216.559C211.658 217.205 211.24 218.173 211.54 219.239L211.447 219.289L210.685 217.855L209.657 218.402L213.34 225.33L214.462 224.733ZM212.198 220.475L212.148 220.381C211.557 219.27 211.914 218.388 213.067 217.775C214.147 217.2 215.022 217.268 215.685 218.514C216.342 219.75 215.924 220.518 214.813 221.109C213.712 221.695 212.761 221.534 212.198 220.475ZM221.014 221.249L219.302 218.03L219.344 218.008C220.054 218.842 221.128 219.057 222.291 218.439C223.901 217.583 224.209 216.033 223.359 214.434C222.508 212.834 221.025 212.224 219.425 213.075C218.21 213.721 217.792 214.689 218.093 215.755L217.999 215.805L217.237 214.371L216.209 214.918L219.892 221.846L221.014 221.249ZM218.75 216.991L218.7 216.898C218.109 215.786 218.466 214.904 219.619 214.291C220.699 213.716 221.574 213.784 222.237 215.03C222.894 216.266 222.477 217.034 221.365 217.625C220.264 218.211 219.313 218.05 218.75 216.991ZM230.753 213.939C232.955 212.769 233.638 210.594 232.483 208.423C231.329 206.252 229.145 205.602 226.943 206.773C224.762 207.932 224.069 210.113 225.223 212.283C226.377 214.454 228.572 215.099 230.753 213.939ZM230.179 212.859C228.528 213.737 227.33 213.388 226.407 211.654C225.485 209.919 225.86 208.721 227.512 207.843C229.163 206.964 230.377 207.318 231.299 209.053C232.222 210.787 231.83 211.981 230.179 212.859ZM236.284 210.866L234.925 208.31C234.329 207.189 234.529 206.336 235.661 205.735C236.73 205.166 237.426 205.422 237.94 206.388L239.431 209.192L240.553 208.596L238.901 205.49C238.266 204.296 237.046 203.705 235.613 204.467C234.304 205.163 234.061 206.359 234.369 207.314L234.296 207.353L233.446 205.753L232.417 206.3L235.162 211.462L236.284 210.866ZM244.449 206.524L243.333 204.426L245.618 203.211C247.166 202.388 247.751 200.932 246.933 199.394C246.11 197.847 244.581 197.527 243.034 198.35L239.627 200.162L243.327 207.12L244.449 206.524ZM243.466 199.413C244.515 198.855 245.265 198.963 245.811 199.991C246.358 201.019 246.028 201.701 244.979 202.259L242.798 203.418L241.285 200.573L243.466 199.413ZM251.133 202.97L247.433 196.011L246.311 196.607L250.012 203.566L251.133 202.97ZM253.744 201.715C254.917 201.091 255.462 200.136 255.268 199.12L255.341 199.081L256.025 200.369L257.054 199.822L255.386 196.685C254.729 195.449 253.516 194.948 251.875 195.821C250.234 196.693 249.727 198.095 250.351 199.269L250.373 199.311L251.485 198.72L251.463 198.678C251.059 197.92 251.361 197.36 252.317 196.852C253.303 196.327 253.838 196.429 254.29 197.281L254.451 197.582L252.236 199.08C251.279 199.735 250.856 200.493 251.281 201.293C251.734 202.144 252.674 202.284 253.744 201.715ZM252.364 200.624C252.148 200.219 252.357 199.934 252.9 199.552L254.804 198.247C255.345 199.265 254.788 200.121 253.614 200.745C252.97 201.087 252.585 201.039 252.364 200.624ZM259.825 200.614C260.884 200.05 261.317 199.461 261.251 198.31L260.898 191.156L259.662 191.814L259.899 195.191L260.074 196.697L259.991 196.742L258.825 195.776L256.048 193.735L254.791 194.404L260.08 198.213L260.099 198.549C260.131 198.985 260.011 199.209 259.554 199.452L258.546 199.988L259.087 201.006L259.825 200.614ZM266.688 194.833C268.142 194.06 268.793 192.98 268.28 192.014C267.827 191.163 267.045 191.045 265.737 191.541L264.454 192.01C263.62 192.321 263.335 192.286 263.119 191.881C262.86 191.392 263.082 191.008 264.027 190.505C265.169 189.898 265.652 190.054 265.978 190.667L266.011 190.729L267.122 190.138L267.106 190.107C266.454 188.882 265.162 188.756 263.583 189.596C261.994 190.441 261.516 191.521 261.996 192.424C262.455 193.286 263.268 193.387 264.31 192.993L265.822 192.429C266.615 192.14 266.936 192.143 267.162 192.569C267.405 193.026 267.215 193.394 266.207 193.929C265.127 194.504 264.606 194.501 264.247 193.826L264.203 193.743L263.081 194.339L263.097 194.37C263.733 195.565 265.026 195.716 266.688 194.833ZM273.237 191.217L272.702 190.21L271.767 190.707C271.123 191.049 270.744 191.037 270.407 190.404L269.12 187.984L270.99 186.99L270.493 186.055L268.623 187.049L268.021 185.917L266.91 186.508L267.512 187.64L266.639 188.104L267.136 189.039L268.009 188.575L269.329 191.057C269.997 192.314 270.942 192.438 272.053 191.847L273.237 191.217ZM276.632 189.545C278.356 188.628 278.929 186.925 278.085 185.336C277.229 183.726 275.501 183.259 273.777 184.175C272.063 185.087 271.485 186.78 272.341 188.39C273.186 189.979 274.919 190.456 276.632 189.545ZM276.102 188.548C274.856 189.211 274.022 188.895 273.442 187.804C272.856 186.703 273.055 185.825 274.302 185.162C275.559 184.494 276.398 184.82 276.984 185.921C277.563 187.012 277.359 187.88 276.102 188.548ZM281.39 186.882L279.849 183.984C279.358 183.06 279.462 182.379 280.344 181.909C281.113 181.5 281.607 181.678 281.999 182.415L282.242 182.872L283.353 182.281L282.994 181.606C282.475 180.63 281.519 180.059 280.345 180.683C279.286 181.246 279.078 182.209 279.364 183.123L279.292 183.162L278.552 181.77L277.523 182.317L280.268 187.479L281.39 186.882ZM288.184 183.403C289.721 182.586 290.398 181.253 289.813 180.152L289.763 180.059L288.642 180.655L288.686 180.738C289.012 181.351 288.753 181.941 287.673 182.516C286.478 183.151 285.708 182.881 285.137 181.906L289.52 179.575C289.468 179.403 289.401 179.252 289.302 179.065C288.468 177.497 286.908 177.194 285.308 178.044C283.626 178.939 283.099 180.604 283.955 182.214C284.872 183.938 286.491 184.303 288.184 183.403ZM285.757 178.938C286.858 178.353 287.651 178.517 288.159 179.472L288.17 179.493L284.816 181.277C284.386 180.319 284.614 179.545 285.757 178.938Z" fill="white"/>
<line x1="308.912" y1="137.726" x2="307.498" y2="178.219" stroke="white" stroke-width="0.653522"/>
<path d="M470.679 267.416C473.255 267.416 474.549 266.122 474.549 264.005V259.417H472.784V263.875C472.784 265.216 472.29 265.699 470.679 265.699C469.079 265.699 468.573 265.216 468.573 263.875V259.417H466.809V264.005C466.809 266.122 468.114 267.416 470.679 267.416ZM477.202 260.805V259.417H475.437V260.805H477.202ZM477.202 267.299V261.405H475.437V267.299H477.202ZM480.36 267.299V262.864H482.184V261.405H480.29C480.243 260.829 480.608 260.699 481.384 260.699H482.184V259.417H481.666C479.855 259.417 478.819 260.217 478.631 261.405H477.761V262.864H478.596V267.299H480.36ZM484.531 267.299V263.887C484.531 263.146 484.813 262.781 485.601 262.781C486.319 262.781 486.578 263.064 486.578 263.711V264.322H488.342V263.346C488.342 262.193 487.801 261.287 486.484 261.287C485.296 261.287 484.672 262.017 484.507 262.97H484.402V261.405H482.766V267.299H484.531ZM490.111 269.298C491.593 269.298 492.381 268.957 492.946 267.722L495.863 261.405H493.898L492.781 264.087L492.31 265.487H492.193L491.699 264.099L490.452 261.405H488.452L491.334 267.322C491.216 267.581 491.028 267.699 490.593 267.699H489.146V269.298H490.111ZM499.867 267.299V265.122H502.22C504.043 265.122 505.219 264.075 505.219 262.264C505.219 260.452 504.043 259.417 502.22 259.417H498.103V267.299H499.867ZM502.031 261.005C503.008 261.005 503.467 261.299 503.467 262.264C503.467 263.252 503.008 263.534 502.031 263.534H499.867V261.005H502.031ZM507.61 267.299V263.887C507.61 263.146 507.892 262.781 508.68 262.781C509.398 262.781 509.657 263.064 509.657 263.711V264.322H511.421V263.346C511.421 262.193 510.88 261.287 509.562 261.287C508.374 261.287 507.751 262.017 507.586 262.97H507.48V261.405H505.845V267.299H507.61ZM515.189 267.416C517.059 267.416 518.306 266.522 518.306 265.24V265.111H516.542V265.228C516.542 265.734 516.177 266.005 515.13 266.005C513.989 266.005 513.566 265.616 513.519 264.711H518.318C518.342 264.511 518.365 264.358 518.365 264.146C518.365 262.299 517.083 261.287 515.154 261.287C513.213 261.287 511.884 262.476 511.884 264.358C511.884 266.452 513.225 267.416 515.189 267.416ZM515.119 262.664C516.154 262.664 516.624 263.005 516.671 263.781H513.542C513.625 263.017 514.072 262.664 515.119 262.664ZM520.878 267.299V264.322C520.878 263.299 521.184 262.876 522.254 262.876C523.266 262.876 523.607 263.24 523.607 264.217V267.299H525.372V264.322C525.372 263.299 525.677 262.876 526.748 262.876C527.76 262.876 528.101 263.24 528.101 264.217V267.299H529.865V263.628C529.865 262.287 529.124 261.287 527.607 261.287C526.089 261.287 525.489 262.217 525.348 263.217H525.242C525.113 262.123 524.419 261.287 523.054 261.287C521.572 261.287 520.984 262.205 520.843 263.193H520.749V261.405H519.113V267.299H520.878ZM532.526 260.805V259.417H530.762V260.805H532.526ZM532.526 267.299V261.405H530.762V267.299H532.526ZM535.885 267.416C537.438 267.416 538.155 266.487 538.308 265.499H538.402V267.299H540.049V261.405H538.285V264.393C538.285 265.393 537.873 265.84 536.72 265.84C535.603 265.84 535.203 265.44 535.203 264.487V261.405H533.438V265.075C533.438 266.393 534.226 267.416 535.885 267.416ZM542.716 267.299V264.322C542.716 263.299 543.022 262.876 544.092 262.876C545.104 262.876 545.445 263.24 545.445 264.217V267.299H547.21V264.322C547.21 263.299 547.516 262.876 548.586 262.876C549.598 262.876 549.939 263.24 549.939 264.217V267.299H551.703V263.628C551.703 262.287 550.962 261.287 549.445 261.287C547.927 261.287 547.327 262.217 547.186 263.217H547.08C546.951 262.123 546.257 261.287 544.892 261.287C543.41 261.287 542.822 262.205 542.681 263.193H542.587V261.405H540.952V267.299H542.716Z" fill="black"/>
<path d="M468.049 285.904V283.091H472.336V282.088H468.049V279.913H472.493V278.898H466.92V285.904H468.049ZM474.462 285.904V282.987C474.462 282.056 474.828 281.565 475.717 281.565C476.49 281.565 476.804 281.91 476.804 282.652V283.112H477.923V282.433C477.923 281.45 477.411 280.603 476.229 280.603C475.163 280.603 474.598 281.272 474.441 282.109H474.368V280.707H473.333V285.904H474.462ZM481.246 286.009C482.794 286.009 483.881 285.245 483.881 284.137V284.043H482.752V284.127C482.752 284.744 482.303 285.099 481.215 285.099C480.013 285.099 479.521 284.566 479.479 283.562H483.892C483.923 283.405 483.934 283.259 483.934 283.071C483.934 281.492 482.836 280.603 481.226 280.603C479.532 280.603 478.423 281.69 478.423 283.311C478.423 285.047 479.542 286.009 481.246 286.009ZM481.205 281.492C482.313 281.492 482.867 281.952 482.867 282.914V282.935H479.49C479.552 282.004 480.054 281.492 481.205 281.492ZM487.394 286.009C488.941 286.009 490.029 285.245 490.029 284.137V284.043H488.899V284.127C488.899 284.744 488.45 285.099 487.362 285.099C486.16 285.099 485.668 284.566 485.626 283.562H490.039C490.07 283.405 490.081 283.259 490.081 283.071C490.081 281.492 488.983 280.603 487.373 280.603C485.679 280.603 484.57 281.69 484.57 283.311C484.57 285.047 485.689 286.009 487.394 286.009ZM487.352 281.492C488.46 281.492 489.014 281.952 489.014 282.914V282.935H485.637C485.7 282.004 486.202 281.492 487.352 281.492ZM496.196 285.904V279.913H498.946V278.898H492.316V279.913H495.077V285.904H496.196ZM500.736 285.904V282.987C500.736 282.056 501.102 281.565 501.99 281.565C502.764 281.565 503.078 281.91 503.078 282.652V283.112H504.197V282.433C504.197 281.45 503.684 280.603 502.503 280.603C501.436 280.603 500.872 281.272 500.715 282.109H500.641V280.707H499.606V285.904H500.736ZM506.035 280.101V278.898H504.906V280.101H506.035ZM506.035 285.904V280.707H504.906V285.904H506.035ZM508.608 286.009C509.789 286.009 510.615 285.486 510.887 284.608H510.96V285.904H511.995V282.746C511.995 281.502 511.253 280.603 509.601 280.603C507.949 280.603 506.966 281.492 506.966 282.673V282.715H508.085V282.673C508.085 281.91 508.555 281.596 509.517 281.596C510.511 281.596 510.887 281.899 510.887 282.757V283.06L508.524 283.311C507.499 283.426 506.851 283.844 506.851 284.649C506.851 285.507 507.531 286.009 508.608 286.009ZM507.98 284.576C507.98 284.168 508.263 284.032 508.848 283.959L510.887 283.729C510.887 284.754 510.092 285.193 508.911 285.193C508.263 285.193 507.98 284.994 507.98 284.576ZM514.133 285.904V278.898H513.003V285.904H514.133Z" fill="black"/>
<path d="M59.7244 330.79L58.4157 316.545L88.2862 300.663L99.2698 309.763L119.559 298.975L58.856 250.525L33.5882 263.96L39.9047 341.328L59.7244 330.79ZM55.6128 286.347L54.0082 273.585L55.2293 272.936L65.0061 281.353L73.3642 288.234L56.6443 297.125L55.6128 286.347Z" fill="black"/>
<defs>
<filter id="filter0_f_101_98" x="203.036" y="108.421" width="313.025" height="318.499" filterUnits="userSpaceOnUse" color-interpolation-filters="sRGB">
<feFlood flood-opacity="0" result="BackgroundImageFix"/>
<feBlend mode="normal" in="SourceGraphic" in2="BackgroundImageFix" result="shape"/>
<feGaussianBlur stdDeviation="65.3521" result="effect1_foregroundBlur_101_98"/>
</filter>
<clipPath id="clip0_101_98">
<rect width="15.6845" height="15.6845" fill="white" transform="translate(333.96 135.324) rotate(-28)"/>
</clipPath>
<clipPath id="clip1_101_98">
<rect width="15.6845" height="15.6845" fill="white" transform="translate(98.5345 260.503) rotate(-28)"/>
</clipPath>
</defs>
</svg>
